<svg id="_0397_dream_1" xmlns="http://www.w3.org/2000/svg" xmlns:xlink="http://www.w3.org/1999/xlink" viewBox="0 0 500 500" data-imageid="dream-1-61" imageName="Dream 1" class="illustrations_image" style="width: 166px;"><defs><style>.cls-1_dream-1-61{fill:url(#linear-gradient);}.cls-1_dream-1-61,.cls-2_dream-1-61,.cls-3_dream-1-61,.cls-4_dream-1-61,.cls-5_dream-1-61,.cls-6_dream-1-61,.cls-7_dream-1-61,.cls-8_dream-1-61,.cls-9_dream-1-61,.cls-10_dream-1-61,.cls-11_dream-1-61,.cls-12_dream-1-61,.cls-13_dream-1-61,.cls-14_dream-1-61,.cls-15_dream-1-61,.cls-16_dream-1-61{stroke-width:0px;}.cls-2_dream-1-61{fill:url(#linear-gradient-11-dream-1-61);}.cls-3_dream-1-61{fill:url(#linear-gradient-10-dream-1-61);}.cls-4_dream-1-61{isolation:isolate;opacity:.42;}.cls-4_dream-1-61,.cls-16_dream-1-61{fill:#68e1fd;}.cls-5_dream-1-61{fill:url(#linear-gradient-4-dream-1-61);}.cls-6_dream-1-61{fill:url(#linear-gradient-2-dream-1-61);}.cls-7_dream-1-61{fill:url(#linear-gradient-3-dream-1-61);}.cls-8_dream-1-61{fill:url(#linear-gradient-8-dream-1-61);}.cls-9_dream-1-61{fill:url(#linear-gradient-9-dream-1-61);}.cls-10_dream-1-61{fill:url(#linear-gradient-7-dream-1-61);}.cls-11_dream-1-61{fill:url(#linear-gradient-5-dream-1-61);}.cls-12_dream-1-61{fill:url(#linear-gradient-6-dream-1-61);}.cls-13_dream-1-61{fill:#403c58;}.cls-14_dream-1-61{fill:#fff;}.cls-15_dream-1-61{fill:#ffb4a3;}</style><linearGradient id="linear-gradient-dream-1-61" x1="-1034" y1="2027.66" x2="-1029.68" y2="2146.37" gradientTransform="translate(1288.65 2283.35) scale(1 -1)" gradientUnits="userSpaceOnUse"><stop offset="0" stop-color="#231f20" stop-opacity="0"/><stop offset="1" stop-color="#231f20"/></linearGradient><linearGradient id="linear-gradient-2-dream-1-61" x1="-1005.4" y1="2074" x2="-931.48" y2="2166.89" xlink:href="#linear-gradient-dream-1-61"/><linearGradient id="linear-gradient-3-dream-1-61" x1="-1074.11" y1="2079.72" x2="-1088.4" y2="2125.61" xlink:href="#linear-gradient-dream-1-61"/><linearGradient id="linear-gradient-4-dream-1-61" x1="-1090.06" y1="2087.6" x2="-1028.45" y2="2150.63" xlink:href="#linear-gradient-dream-1-61"/><linearGradient id="linear-gradient-5-dream-1-61" x1="-1057.71" y1="1906.14" x2="-1007.64" y2="2064.42" xlink:href="#linear-gradient-dream-1-61"/><linearGradient id="linear-gradient-6-dream-1-61" x1="-1049.79" y1="2078.53" x2="-1065.45" y2="1940.85" xlink:href="#linear-gradient-dream-1-61"/><linearGradient id="linear-gradient-7-dream-1-61" x1="-979.42" y1="2091.87" x2="-974.48" y2="1992.12" xlink:href="#linear-gradient-dream-1-61"/><linearGradient id="linear-gradient-8-dream-1-61" x1="-1073.14" y1="2096.18" x2="-1073.55" y2="1993.14" xlink:href="#linear-gradient-dream-1-61"/><linearGradient id="linear-gradient-9-dream-1-61" x1="-1131.4" y1="2007.61" x2="-1133.87" y2="1874.06" xlink:href="#linear-gradient-dream-1-61"/><linearGradient id="linear-gradient-10-dream-1-61" x1="-939.8" y1="1980.16" x2="-911.77" y2="1915.85" xlink:href="#linear-gradient-dream-1-61"/><linearGradient id="linear-gradient-11-dream-1-61" x1="-1087.9" y1="1869.07" x2="-1026.89" y2="1974.59" xlink:href="#linear-gradient-dream-1-61"/></defs><g id="background_dream-1-61"><path class="cls-4_dream-1-61 targetColor" d="M480.24,280.82c-3.52,21.35-10.84,41.9-21.6,60.68-44.19,76.59-147.85,85.09-227.79,91.38-18.61,1.47-37.34,2.93-55.9.96-40.87-4.35-78.52-25.3-109.55-52.24-23.71-20.56-44.73-45.69-53.51-75.85-8.78-30.16-3.2-65.8,19.71-87.19,2.24-2.09,4.61-4.05,7.09-5.87,15.59-11.4,34.95-17.36,52.21-26.5,5.55-2.88,10.83-6.27,15.77-10.11,26.79-21.21,37.16-57.09,59.89-82.6,37.24-41.81,108.99-63.06,161.18-38.9,12.91,5.98,22.18,16.21,33.93,23.07,14.72,8.57,30.64,13.48,44.78,23.69,28.33,20.42,50.98,48.79,63.84,81.33,8.04,20.51,12.28,42.31,12.52,64.33.16,11.33-.7,22.64-2.57,33.81Z" style="fill: rgb(70, 179, 70);"/><path class="cls-4_dream-1-61 targetColor" d="M480.24,280.82c-3.52,21.35-10.84,41.9-21.6,60.68-44.19,76.59-147.85,85.09-227.79,91.38-18.61,1.47-37.34,2.93-55.9.96-40.87-4.35-78.52-25.3-109.55-52.24-23.71-20.56-44.73-45.69-53.51-75.85-8.78-30.16-3.2-65.8,19.71-87.19,2.24-2.09,4.61-4.05,7.09-5.87,15.59-11.4,34.95-17.36,52.21-26.5,8.41,3.66,16.8,7.25,25.75,8.97,23.96,4.63,48.52-4.95,72.87-3.37,20.59,1.34,39.73,10.53,58.44,19.19,50.75,23.61,105.81,45.28,161.23,37.38,15.92-2.28,31.67-6.99,47.72-6.26,8.83.4,17.36,2.43,25.92,4.87.16,11.33-.7,22.66-2.58,33.84Z" style="fill: rgb(70, 179, 70);"/></g><g id="dream_dream-1-61"><path class="cls-14_dream-1-61" d="M270.31,70.44c-9.39,6.21-11.51,18.86-12.79,30.05-5.88,1.99-12.64,1.21-17.98,4.35-6.21,3.66-8.56,11.45-9.14,18.62,0,1.4-.29,2.78-.84,4.07-1.52,2.87-5.32,3.41-8.54,3.73-7.44.75-15.76,2.92-19.28,9.5-1.31,2.45-1.74,5.57-.31,7.96,2.24,3.74,7.54,3.88,11.88,3.3,10.13-1.38,19.99-4.29,29.24-8.64,5.23-2.45,10.44-5.42,16.2-5.81,5.39-.36,10.63,1.57,15.8,3.13,8.88,2.66,18.05,4.26,27.31,4.76,6.54.36,13.21.14,19.46-1.83,6.25-1.96,12.09-5.84,15.39-11.5,1.64,5.1,6.46,8.66,11.58,10.24,5.12,1.57,10.59,1.45,15.95,1.33,6.12-.15,12.68-.44,17.57-4.13,3.88-2.94,6.06-7.6,7.71-12.19,1.18-2.89,1.82-5.97,1.89-9.08-.24-9.43-9-16.07-16.9-21.22-5.82-3.8-12.06-7.73-19.02-7.84-3.52-.05-7.2.91-10.48-.43-5.68-2.25-6.95-9.51-9.87-14.9-4.47-8.22-13.91-12.79-23.2-14.07-3.35-.54-6.77-.36-10.05.51-3.87,1.14-4.85,4.2-7.83,5.76-2.98,1.55-8.49.16-11.83.5-4.22.29-8.32,1.6-11.92,3.83Z"/><path class="cls-16_dream-1-61 targetColor" d="M322.59,107.78c.49-1.19,1.19-2.28,2.07-3.21-1.83,3.99-3.73,8.11-3.97,12.51-.14,2.6.32,5.22.28,7.83.03.5-.08,1-.31,1.44-.26.45-.82.63-1.3.42-.62-.37.06-3.22.05-3.84-.03-1.72.07-3.45.29-5.15.46-3.46,1.42-6.83,2.87-10.01Z" style="fill: rgb(70, 179, 70);"/><path class="cls-4_dream-1-61 targetColor" d="M328.96,106.27c.02.91.16,1.82.43,2.69.15.91.17,1.83.06,2.74.02.97-.37,1.9-1.09,2.56-.71.43-1.6.43-2.3,0-.69-.44-1.23-1.08-1.56-1.83-1.11-2.33-.93-5.07.48-7.24-.27.61-.72,1.12-1.3,1.45-1.08.86-2.27,1.58-3.53,2.15-1.26.58-2.7.68-4.03.28-.33-.09-.62-.28-.83-.54-.17-.32-.25-.68-.23-1.04-.05-.55,0-1.1.16-1.63.23-.53.55-1.02.96-1.43.46-.58,1.01-1.09,1.63-1.5.81-.4,1.7-.62,2.6-.67.61-.09,1.22-.14,1.83-.16-1.91-.36-3.57-1.51-4.57-3.18-.91-1.68-.63-4.14,1.01-5.15s3.66-.35,4.91.91c1.2,1.34,2.06,2.95,2.49,4.7-.22-1.5.06-3.03.8-4.36.53-1.1,1.37-2.22,2.58-2.34,1.54-.16,2.74,1.53,2.74,3.08-.2,1.55-.83,3-1.83,4.2.72-.81,1.63-1.42,2.65-1.77.92-.44,1.94-.66,2.96-.65,1.04.02,1.98.58,2.51,1.47.71,1.4-.23,3.18-1.61,3.94-1.43.63-3.01.89-4.57.74,1.31.54,2.44,1.42,3.26,2.57.81,1.2.64,2.81-.41,3.81-.83.56-1.89.63-2.79.2-.88-.44-1.63-1.1-2.18-1.91-.52-.64-.93-1.35-1.24-2.11Z" style="fill: rgb(70, 179, 70);"/><circle class="cls-16_dream-1-61 targetColor" cx="326.67" cy="102.88" r="3.86" style="fill: rgb(70, 179, 70);"/><path class="cls-16_dream-1-61 targetColor" d="M301.16,106.17c.38-.93.94-1.78,1.63-2.51-1.45,3.14-2.93,6.4-3.12,9.82-.11,2.06.25,4.1.22,6.16.03.39-.05.79-.25,1.13-.2.36-.64.5-1.01.34-.48-.3.05-2.53.05-3.02-.02-1.36.06-2.71.23-4.06.36-2.72,1.12-5.37,2.26-7.87Z" style="fill: rgb(70, 179, 70);"/><path class="cls-4_dream-1-61 targetColor" d="M306.17,104.97c0,.72.12,1.43.34,2.12.11.72.13,1.45.05,2.17.02.76-.3,1.49-.86,2-.56.35-1.27.35-1.83,0-.54-.35-.96-.84-1.22-1.43-.88-1.83-.73-3.98.37-5.68-.21.48-.57.88-1.02,1.14-.84.67-1.76,1.24-2.74,1.69-1,.45-2.12.53-3.17.22-.26-.07-.49-.22-.65-.43-.14-.25-.2-.53-.18-.81-.04-.43,0-.86.13-1.28.18-.41.44-.79.75-1.11.76-1.09,2.01-1.73,3.34-1.71.48-.07.97-.11,1.46-.12-1.51-.28-2.82-1.19-3.61-2.5-.81-1.35-.46-3.1.8-4.05,1.3-.63,2.86-.35,3.86.7.94,1.04,1.61,2.3,1.96,3.66-.17-1.18.05-2.38.63-3.43.32-.91,1.09-1.6,2.03-1.83,1.21-.12,2.17,1.2,2.13,2.42-.15,1.22-.64,2.36-1.42,3.31.56-.64,1.28-1.12,2.08-1.4.73-.34,1.52-.52,2.32-.51.82.02,1.57.46,1.98,1.16.43,1.2-.11,2.53-1.26,3.09-1.15.51-2.41.71-3.66.58,1.03.42,1.91,1.12,2.56,2.02.64.94.51,2.21-.32,3-.65.44-1.49.5-2.19.16-.69-.35-1.28-.87-1.72-1.51-.39-.5-.7-1.05-.92-1.64Z" style="fill: rgb(70, 179, 70);"/><circle class="cls-16_dream-1-61 targetColor" cx="304.36" cy="102.33" r="3.03" style="fill: rgb(70, 179, 70);"/><path class="cls-16_dream-1-61 targetColor" d="M280.2,102.21c.43-1.04,1.05-1.99,1.83-2.8-1.62,3.49-3.26,7.09-3.46,10.97-.12,2.28.27,4.57.24,6.85.03.44-.06.87-.27,1.26-.24.38-.72.54-1.13.37-.54-.33.05-2.81.05-3.35-.02-1.51.07-3.01.26-4.51.39-3.04,1.23-6,2.49-8.79Z" style="fill: rgb(70, 179, 70);"/><path class="cls-4_dream-1-61 targetColor" d="M285.76,100.88c.01.8.14,1.59.37,2.36.13.8.15,1.62.05,2.42.03.84-.3,1.65-.91,2.23-.62.38-1.39.38-2.01,0-.6-.38-1.08-.93-1.37-1.58-.97-2.04-.81-4.43.41-6.32-.23.53-.63.98-1.13,1.27-.94.75-1.97,1.38-3.07,1.88-1.11.5-2.37.59-3.54.25-.29-.08-.54-.25-.72-.48-.15-.28-.22-.6-.2-.91-.04-.48.01-.96.15-1.42.2-.47.48-.89.83-1.25.4-.49.86-.92,1.39-1.27.71-.35,1.49-.54,2.28-.58.54-.08,1.09-.12,1.64-.14-1.67-.29-3.14-1.29-4.02-2.74-.89-1.52-.49-3.46.91-4.51,1.45-.72,3.19-.4,4.3.79,1.05,1.17,1.8,2.58,2.17,4.1-.19-1.31.05-2.65.69-3.81.36-1.02,1.21-1.79,2.26-2.05,1.34-.14,2.41,1.33,2.38,2.69-.18,1.34-.72,2.61-1.57,3.66.62-.71,1.42-1.24,2.31-1.55.81-.38,1.69-.58,2.59-.57.91.02,1.74.51,2.2,1.29.62,1.22-.21,2.74-1.41,3.45-1.26.55-2.64.77-4.01.65,1.14.47,2.13,1.24,2.85,2.24.7,1.05.55,2.46-.36,3.34-.72.49-1.65.56-2.44.17-.77-.38-1.43-.96-1.91-1.67-.46-.58-.84-1.22-1.11-1.91Z" style="fill: rgb(70, 179, 70);"/><circle class="cls-16_dream-1-61 targetColor" cx="283.75" cy="97.94" r="3.37" style="fill: rgb(70, 179, 70);"/><path class="cls-4_dream-1-61 targetColor" d="M334.67,128.71c-2.33,1.14-4.72,2.14-7.16,3-3.31,1.26-6.89,1.6-10.37.99.46.91-.35,2.05-1.33,2.35-1.01.2-2.05.12-3.02-.22-16.29-4.02-33.66.26-50.17-2.67h0l-.98-.18h.47l13.88.15c-2.74-.48-5.45-1.15-8.1-2,1.83-.62,3.75-.93,5.67-.91-2.48-.14-4.94-.58-7.31-1.33-.21-.06-.42-.14-.62-.23-.91-.37-1.66-1-1.58-1.96.7.11,1.41.14,2.12.08,2.25-.19,2.99-1.54,3.46-3.3.58-2.1.8-4.79,2.82-6.79.36,1.02.72,2.05,1.08,3.06.52-.97,1.15-2.05,2.23-2.33s2.39.97,1.73,1.83c.97-.96,2.01-1.85,3.12-2.64.1.85.21,1.7.31,2.54,2.02-1.59,4.29-2.84,6.71-3.72.16,1.31.33,2.6.48,3.92,1.32-1.06,2.9-1.76,4.57-2.03.21.8.41,1.61.62,2.4l4.23-1.76c.26.82.5,1.64.75,2.46,1.86-.61,3.69-1.32,5.48-2.13-.07,1.31.19,2.62.76,3.8.91-.97,2.44-1.96,3.41-1.05.59.55.59,1.59,1.28,2.04,1.24.8,2.67-1.3,4.12-1.03,1.16.21,1.51,1.68,1.59,2.86l3.3-1.54c.22.78.45,1.54.67,2.3,1.31-.85,2.78-1.42,4.32-1.67l.38,1.88c.98-.84,2.2-1.35,3.49-1.44,1.28.05,2.55,1.37,2.05,2.55l1.4-.64c-.14,1.03.37,2.04,1.28,2.54.89.46,1.86.75,2.86.83Z" style="fill: rgb(70, 179, 70);"/><path class="cls-4_dream-1-61 targetColor" d="M317.14,132.69c.46.91-.35,2.05-1.33,2.35-1.01.2-2.05.12-3.02-.22-16.29-4.02-33.66.26-50.17-2.67h-.06c-.15-.04-.3-.09-.45-.15l13.88.15c-2.74-.48-5.45-1.15-8.1-2,1.83-.62,3.75-.93,5.67-.91-2.48-.14-4.94-.58-7.31-1.33-.21-.06-.42-.14-.62-.23.22-.6.4-1.21.54-1.83.44-1.92.85-4.12,2.58-5.83.3.85.59,1.69.91,2.53.07.18.13.36.19.54.52-.98,1.15-2.06,2.23-2.34s2.39.97,1.74,1.83c.96-.97,2-1.85,3.12-2.64.1.85.19,1.69.3,2.54,2.03-1.58,4.29-2.84,6.71-3.72l.48,3.91c1.32-1.05,2.9-1.75,4.57-2.02.22.8.42,1.6.63,2.41l4.23-1.77c.26.82.5,1.64.75,2.46,1.87-.61,3.7-1.32,5.48-2.13-.07,1.31.19,2.62.76,3.8.91-.97,2.44-1.96,3.41-1.06.59.56.59,1.6,1.28,2.05,1.24.8,2.67-1.29,4.12-1.03,1.17.22,1.5,1.69,1.59,2.87l3.3-1.54c.22.77.45,1.53.67,2.29,1.31-.85,2.78-1.42,4.32-1.67.13.63.26,1.25.37,1.88.98-.84,2.21-1.35,3.5-1.43,1.28,0,2.55,1.36,2.05,2.54l1.4-.64c-.13.78.14,1.56.72,2.09-3.33,1.25-6.94,1.57-10.45.92Z" style="fill: rgb(70, 179, 70);"/></g><g id="character_dream-1-61"><path class="cls-16_dream-1-61 targetColor" d="M98.12,332.81c1.26,1.23,2.86,2.07,4.19,3.24,8.22,7.24,1.9,21.33,6.22,31.39,4.39,10.21,17.6,12.57,28.69,12.93,41.9,1.37,84.28-5.37,125.52,2.15,12.11,2.21,24.48,5.65,36.55,3.06,5.96-1.27,11.51-3.98,17.36-5.8,28.06-8.81,60.08,3.25,87.23-8.03-6.64-22.33,7.64-45.56,7.31-68.87.11-1.63-.26-3.25-1.06-4.67-1.51-2.21-4.57-2.65-7.19-2.85-50.52-3.76-101.05,5.67-151.7,6.48-30.91.48-61.81-2.17-92.71-.7-15.46.74-30.92,2.5-45.96,6.3-6.82,1.71-11.96,2.19-15.26,8.54-2.69,4.95-3.52,12.66.8,16.84Z" style="fill: rgb(70, 179, 70);"/><path class="cls-16_dream-1-61 targetColor" d="M167.37,197.48c-4.57,3.16-7.4,8.17-10.11,13l-50.78,90.85c2.62,3.34,6.88,4.86,10.97,6.09,36.55,10.97,75.51,10.5,113.65,8.6,14.39-.71,28.77-1.62,43.14-2.52,9.44-.58,18.88-1.18,28.33-1.96,27.52-2.27,54.88-6.1,81.96-11.47,6.96-1.38,15.59-4.83,15.44-11.93-.05-2.74-1.58-5.28-3.08-7.62-17.36-27.09-37.02-52.56-56.66-77.99-.93-1.37-2.1-2.55-3.45-3.51-1.83-1.15-4.15-1.35-6.34-1.51-44.48-3.29-89.11-3.99-133.67-2.07-8.34.39-22.4-2.84-29.41,2.05Z" style="fill: rgb(70, 179, 70);"/><path class="cls-1_dream-1-61" d="M167.37,197.48c-4.57,3.16-7.4,8.17-10.11,13l-50.78,90.85c2.62,3.34,6.88,4.86,10.97,6.09,36.55,10.97,75.51,10.5,113.65,8.6,14.39-.71,28.77-1.62,43.14-2.52,9.44-.58,18.88-1.18,28.33-1.96,27.52-2.27,54.88-6.1,81.96-11.47,6.96-1.38,15.59-4.83,15.44-11.93-.05-2.74-1.58-5.28-3.08-7.62-17.36-27.09-37.02-52.56-56.66-77.99-.93-1.37-2.1-2.55-3.45-3.51-1.83-1.15-4.15-1.35-6.34-1.51-44.48-3.29-89.11-3.99-133.67-2.07-8.34.39-22.4-2.84-29.41,2.05Z"/><path class="cls-16_dream-1-61 targetColor" d="M267.46,174.81c-.27-2.06-.47-4.57,1.35-5.7,1.82-1.13,4.04-.24,6.11.17,3.79.74,7.65-.14,11.38-.91,13.2-2.67,26.65-3.91,40.12-3.71.6-.03,1.2.06,1.77.25,2.16.91,1.66,3.77.91,5.78-4.95,12.85-6.05,26.87-3.16,40.34.3,1.43.54,3.16-.67,4.04-.93.49-2.01.65-3.04.44l-50.68-4.36c-2.92-.26-8.64-.76-9.65-4.11-.69-2.29,2.01-5.48,2.8-7.58,2.92-7.86,3.87-16.32,2.76-24.63Z" style="fill: rgb(70, 179, 70);"/><path class="cls-6_dream-1-61" d="M267.46,174.81c-.27-2.06-.47-4.57,1.35-5.7,1.82-1.13,4.04-.24,6.11.17,3.79.74,7.65-.14,11.38-.91,13.2-2.67,26.65-3.91,40.12-3.71.6-.03,1.2.06,1.77.25,2.16.91,1.66,3.77.91,5.78-4.95,12.85-6.05,26.87-3.16,40.34.3,1.43.54,3.16-.67,4.04-.93.49-2.01.65-3.04.44l-50.68-4.36c-2.92-.26-8.64-.76-9.65-4.11-.69-2.29,2.01-5.48,2.8-7.58,2.92-7.86,3.87-16.32,2.76-24.63Z"/><path class="cls-16_dream-1-61 targetColor" d="M185.62,166.2c-.65-.36-1.44-.36-2.09,0-.25.25-.43.57-.49.91-.5,2.13.62,4.28.8,6.45.05,1.57-.14,3.14-.56,4.65-1.32,6.22-2.06,12.54-2.24,18.9-.06,2.57-.05,5.19-.91,7.6-.56,1.54-1.44,3.26-.65,4.69s2.97,1.55,4.72,1.58c2.39.03,4.76.42,7.04,1.15,2.15.69,4.27,1.68,6.52,1.72,1.56-.05,3.1-.33,4.57-.83l7.13-2.05c2.83-.73,5.62-1.65,8.33-2.74,1.9-.82,3.73-1.83,5.66-2.6,2.44-.99,5.02-1.58,7.52-2.41,2.99-1.05,5.92-2.27,8.77-3.66.57-.2,1.06-.56,1.43-1.04.2-.39.3-.83.3-1.27.15-2.87-.75-5.7-.91-8.57-.16-3.48.8-6.91,1.49-10.33.48-2.32.69-5.13-1.12-6.65-1.4-.97-3.18-1.21-4.78-.63-1.62.46-3.08,1.33-4.67,1.83-3.76,1.24-7.85.52-11.74-.23-5.26-1.02-10.56-2.44-15.87-3.12-3.43-.44-6.72.23-10.13-.58-2.75-.78-5.45-1.71-8.1-2.79Z" style="fill: rgb(70, 179, 70);"/><path class="cls-7_dream-1-61" d="M185.62,166.2c-.65-.36-1.44-.36-2.09,0-.25.25-.43.57-.49.91-.5,2.13.62,4.28.8,6.45.05,1.57-.14,3.14-.56,4.65-1.32,6.22-2.06,12.54-2.24,18.9-.06,2.57-.05,5.19-.91,7.6-.56,1.54-1.44,3.26-.65,4.69s2.97,1.55,4.72,1.58c2.39.03,4.76.42,7.04,1.15,2.15.69,4.27,1.68,6.52,1.72,1.56-.05,3.1-.33,4.57-.83l7.13-2.05c2.83-.73,5.62-1.65,8.33-2.74,1.9-.82,3.73-1.83,5.66-2.6,2.44-.99,5.02-1.58,7.52-2.41,2.99-1.05,5.92-2.27,8.77-3.66.57-.2,1.06-.56,1.43-1.04.2-.39.3-.83.3-1.27.15-2.87-.75-5.7-.91-8.57-.16-3.48.8-6.91,1.49-10.33.48-2.32.69-5.13-1.12-6.65-1.4-.97-3.18-1.21-4.78-.63-1.62.46-3.08,1.33-4.67,1.83-3.76,1.24-7.85.52-11.74-.23-5.26-1.02-10.56-2.44-15.87-3.12-3.43-.44-6.72.23-10.13-.58-2.75-.78-5.45-1.71-8.1-2.79Z"/><path class="cls-15_dream-1-61" d="M216.88,170.79s19.47-11.81,24.67-13.71,6.31,15.67,6.31,15.67c0,0-.91,18.92.33,21.02s-12.98-3.76-12.98-3.76l2.35-18.33s-10.45,1.93-12.31,3.39c-1.86,1.46-9.14.07-8.96-2.19s.59-2.09.59-2.09Z"/><path class="cls-16_dream-1-61 targetColor" d="M207.97,197.46c.74,1.26,1.05,2.73.86,4.19-.22,1.7-1.11,3.24-1.57,4.89-.7,2.58-.37,5.33.91,7.67.98,1.76,2.46,3.22,3.4,5,.48.8.69,1.74.58,2.67-.21.54-.32,1.12-.32,1.7.16.91,1.27,1.33,2.21,1.47,3.02.43,6.09-.1,8.79-1.51,4.2-2.19,7.05-6.24,10.05-9.87,3.01-3.63,6.84-7.18,11.56-7.65,1.26-.03,2.52-.12,3.77-.28,1.27-.17,2.35-.99,2.88-2.16.21-.82.21-1.67,0-2.49-.19-1.02-.39-2.04-.6-3.05-.16-1.1-.54-2.16-1.11-3.13-1.38-2.02-4.07-2.53-6.31-3.51-2.69-1.17-5.04-3.22-7.92-3.73-2.89-.51-5.61.56-8.11,1.89s-4.83,3.01-7.49,3.93c-1.92.59-3.81,1.3-5.64,2.14-1.87.92-3.87,1.53-5.93,1.83Z" style="fill: rgb(70, 179, 70);"/><path class="cls-13_dream-1-61" d="M198.04,186.21c-2.44-1.97-4.75-4.51-5.05-7.62-.09-1.6.17-3.21.78-4.7.76-2.07,2.07-4.22,4.21-4.76.96-.04,1.86-.45,2.52-1.14,1.19-.74,2.59-1.08,3.98-.97,5.05.05,9.94,1.85,13.82,5.09,1.56,1.32,3,2.88,4.9,3.66,1.62.48,3.29.79,4.97.91,2.45.4,4.92,1.54,6.21,3.66,1.02,1.69,1.21,3.74.53,5.59-.7,1.83-2.15,3.28-3.98,3.99-.91.37-1.94.53-2.87.91-.96.45-1.87.98-2.74,1.58-3.78,2.33-8.15,3.52-12.44,4.67-.98.33-2.01.47-3.04.41-1.72-.34-3.21-1.42-4.07-2.95-.91-1.44-1.56-3.09-2.47-4.57-1.56-2.53-3.93-4.46-6.72-5.48"/><path class="cls-5_dream-1-61" d="M198.04,186.21c-2.44-1.97-4.75-4.51-5.05-7.62-.09-1.6.17-3.21.78-4.7.76-2.07,2.07-4.22,4.21-4.76.96-.04,1.86-.45,2.52-1.14,1.19-.74,2.59-1.08,3.98-.97,5.05.05,9.94,1.85,13.82,5.09,1.56,1.32,3,2.88,4.9,3.66,1.62.48,3.29.79,4.97.91,2.45.4,4.92,1.54,6.21,3.66,1.02,1.69,1.21,3.74.53,5.59-.7,1.83-2.15,3.28-3.98,3.99-.91.37-1.94.53-2.87.91-.96.45-1.87.98-2.74,1.58-3.78,2.33-8.15,3.52-12.44,4.67-.98.33-2.01.47-3.04.41-1.72-.34-3.21-1.42-4.07-2.95-.91-1.44-1.56-3.09-2.47-4.57-1.56-2.53-3.93-4.46-6.72-5.48"/><path class="cls-15_dream-1-61" d="M196.08,182.12c1.11,3.98,4.21,7.12,7.65,9.39,1.22.86,2.56,1.53,3.98,1.98,1.38.24,2.74.64,4.03,1.18,1.1.61,1.9,1.64,2.96,2.29,1.96,1.24,4.57,1.06,6.74.27,1.18-.37,2.25-1.02,3.13-1.88.89-.88,1.34-2.1,1.25-3.34-.24-1.15-.77-2.22-1.54-3.11l-3.06-4.22c-1.01-1.4-2.07-2.92-2.05-4.65,0-1.32.7-2.58.61-3.9-.14-1.88-1.77-3.3-3.66-3.16-.57.04-1.13.23-1.61.54-.25.23-.57.36-.91.37-.18-.05-.36-.14-.5-.27-1.93-1.66-4.16-2.93-6.57-3.74-7.02-1.88-12.21,5.95-10.45,12.24Z"/><path class="cls-15_dream-1-61" d="M202.17,197.66c-.47.03-.93.14-1.37.31-.52.26-.98.63-1.36,1.07-.73.79-1.37,1.67-1.88,2.61-.69,1.25-1.17,2.6-1.75,3.91-2.15,4.87-5.67,9.07-7.5,14.07-.19.45-.3.93-.32,1.42.05.71.32,1.39.78,1.95,1.83,2.49,5.03,3.59,8.1,3.9,1.02.1,2.05.11,3.07.05,5.32-.4,10.05-3.55,14.05-7.05,4-3.5,7.69-7.51,12.27-10.24,2.8-1.58,5.76-2.83,8.84-3.75.53-.12,1.02-.36,1.43-.7.42-.36.55-.95.32-1.45-.23-.3-.55-.52-.91-.61-4.57-1.63-9.61-1.19-13.84,1.19-.96.66-2.02,1.18-3.13,1.55-.33.06-.66.14-.99.24-.72.37-1.34.9-1.83,1.54-2.85,3.01-7.03,4.29-10.97,5.48.23-2.16.88-4.26,1.91-6.17.82-1.2,1.43-2.53,1.83-3.93.24-1.31,0-4.07-1.02-5.08s-4.37-.48-5.74-.32Z"/><path class="cls-16_dream-1-61 targetColor" d="M145.85,234.96c11.32-1.09,21.15-9.71,32.51-9.55,4.33.05,8.53,1.42,12.79,2.07,9.91,1.48,20.02-.8,28.33-6.4,3.4-2.49,6.66-5.17,9.76-8.02,5.7-4.88,12.22-9.41,19.68-10.14,13.79-1.34,26.12,10.53,39.95,9.85,6.96-.34,13.46-3.87,20.42-4.34,2.74-.19,5.68.17,7.81,1.92,2.13,1.75,3.02,5.16,1.31,7.31-2.18,2.74,32.9-3.21,36.01-1.64,8.71,4.33.37,6.5,9.86,8.65,8.29,1.88,3.75,2.33,9.5,8.58-11.93,2.57,47.44,66.04,35.32,67.53-16.45,2.02-42.81,15.19-59.3,13.38-6.44-.7-13.07-.79-19.28,1.05-4.2,1.24-13.78-5.42-17.87-3.86-19.36,7.42-189.55,10.05-209.76,5.48-19.91-4.51,26.18-63.3,35.16-76.88.83-2.76,4.97-4.71,7.79-4.98Z" style="fill: rgb(70, 179, 70);"/><path class="cls-11_dream-1-61" d="M145.85,234.96c11.32-1.09,21.15-9.71,32.51-9.55,4.33.05,8.53,1.42,12.79,2.07,9.91,1.48,20.02-.8,28.33-6.4,3.4-2.49,6.66-5.17,9.76-8.02,5.7-4.88,12.22-9.41,19.68-10.14,13.79-1.34,26.12,10.53,39.95,9.85,6.96-.34,13.46-3.87,20.42-4.34,2.74-.19,5.68.17,7.81,1.92,2.13,1.75,3.02,5.16,1.31,7.31-2.18,2.74,32.9-3.21,36.01-1.64,8.71,4.33.37,6.5,9.86,8.65,8.29,1.88,3.75,2.33,9.5,8.58-11.93,2.57,47.44,66.04,35.32,67.53-16.45,2.02-42.81,15.19-59.3,13.38-6.44-.7-13.07-.79-19.28,1.05-4.2,1.24-13.78-5.42-17.87-3.86-19.36,7.42-189.55,10.05-209.76,5.48-19.91-4.51,26.18-63.3,35.16-76.88.83-2.76,4.97-4.71,7.79-4.98Z"/><path class="cls-14_dream-1-61" d="M252.01,218.87c3.1.86,6.1,2.01,9.14,2.97,3.66,1.15,7.6,2.04,11.39,1.26,3.28-.67,6.28-2.55,9.61-2.81,5.08-.4,9.96,3.04,15.01,2.34,3.85-.52,7.16-3.39,11.03-3.5,4.32-.13,8.75.44,13.14.33l13.77-.34c4.07-.2,8.15-.1,12.21.3,2.96.37,6.28.98,8.68-.8.2-.12.35-.32.41-.56,0-.22-.09-.44-.24-.6-1.66-2.34-3.93-4.17-6.56-5.31-3.22-1.37-6.78-1.59-10.27-1.83l-24.31-1.41c-2.05-.12-3.02-.86-4.73-1.61-1.45-.64-2.95-.51-4.57-.49-3.85,0-7.69.19-11.54.32-7.79.25-15.68.41-23.37-1.08-5.4-1.05-10.48-3.36-15.86-4.51-6.4-1.36-12.33,1.75-18.57,3.83-10.33,3.45-18.47,10.28-28.16,14.84-4.89,2.3-10.39,3.66-15.74,2.8-3.18-.5-6.24-1.75-9.46-1.91-3.45-.17-6.81.91-10.05,2-10.13,3.37-20.18,6.97-30.16,10.8.25,2.2,3.28,2.6,5.48,2.3,15.68-2.11,30.7-8.67,46.51-9.07,3.15-.07,6.32.09,9.46-.22,8.17-.81,13.56-6.35,21.06-8.22,8.76-2.24,17.95-2.19,26.68.16Z"/><path class="cls-12_dream-1-61" d="M243.76,279.22c-15.76-4.83-30.84-12.33-47.16-14.62-18.33-2.61-36.92,1.47-54.79,6.4-12.79,3.5-26.25,7.91-34.73,18.12-4.21,5.07-6.88,11.22-9.49,17.28-.7,1.63-1.41,3.49-.68,5.1.59,1.04,1.47,1.88,2.54,2.4,10.74,6.46,23.86,7.22,36.39,7.45,30.43.58,60.86-.91,91.27-2.35,19.19-.91,38.38-1.83,57.29-5.14,15.92-2.74,31.69-7.25,47.86-7.31,5.24,0,10.56.44,15.63-.91s9.94-4.97,10.91-10.12c.28-1.06.14-2.2-.38-3.16-.81-.96-1.93-1.6-3.17-1.83-17.01-4.98-35.25-7.36-52.74-5.55-19.77,2.02-39.75.06-58.75-5.76Z"/><path class="cls-10_dream-1-61" d="M334.84,232.79c-7.63-.27-15.6-.47-22.51,2.79-3.75,1.76-7,4.48-10.85,6-4.17,1.66-8.75,1.83-13.23,1.99l-48.79,1.67c-2.65.09-5.99.71-6.6,3.29,8.16,5.78,16.82,11.26,26.58,13.45,6.9,1.54,14.04,1.36,21.1,1.15,24.67-.71,50.37-1.4,72.83,8.85,11.78,5.36,22.56,13.71,35.37,15.54,1.05.26,2.15.14,3.12-.33,1.92-1.23,1.17-4.19,0-6.15-5.84-9.78-16.81-16.5-19.88-27.47-2.05-7.31-.97-16.45-9.41-19.71-7.58-2.9-19.8-.8-27.74-1.07Z"/><path class="cls-8_dream-1-61" d="M190.04,234.37c-5.48.06-10.87-1.09-16.33-1.18-5.73.05-11.44.81-16.98,2.28-7.64,1.83-15.85,4.64-19.9,11.37,8.33.56,15.97-4.27,24.13-6.05,9.49-2.08,19.34,0,28.81,2.13.4,2.6-3.01,3.91-5.62,4.23l-27.19,3.41c2.91,3.41,8.13,3.25,12.59,2.81l23.04-2.29c2.64-.4,5.33-.4,7.97,0,1.89.46,3.73,1.12,5.48,1.97l30.03,13.4c7.75,3.45,15.95,6.99,24.39,6.12-15.21-11.21-33.68-17.25-49.11-28.16-.62-.33-1.08-.89-1.28-1.55-.16-.91.62-1.69,1.35-2.26,6.76-5.25,15.33-7.75,23.85-8.67,8.52-.92,17.12-.37,25.69-.15,9.55.24,19.1.06,28.65-.53,1.93-.12,4.57-1.07,4.12-2.96-.47-2.12-48.66-2.86-53.92-2.97-17.4-.37-32.72,8.9-49.78,9.07Z"/><path class="cls-9_dream-1-61" d="M126.64,336.16c-6.04-1.89-14.12-3.02-17.36,2.43-1.62,2.74-1.25,6.17-.83,9.33,1.02,7.66,2.69,16.36,9.3,20.36,2.3,1.25,4.8,2.11,7.38,2.53,9.19,1.89,77.09,9.83,78.35-4.29.82-9.09-67.09-27.32-76.85-30.37Z"/><path class="cls-3_dream-1-61" d="M344.36,341.03c2.91-3.42,5.85-6.87,9.56-9.39,4.01-2.74,8.73-4.21,13.4-5.48,11.37-3.18,22.95-5.51,34.66-6.97,2.28,3.78.84,8.73-1.39,12.54-2.23,3.81-5.25,7.31-6.26,11.62-1.68,7.18,2.34,15.93-2.49,21.51-2.33,2.74-6.07,3.66-9.58,4.28-8.45,1.52-17.06,2.03-25.63,1.51-7.05-.42-24.13,2.98-26.87-5.24-2.92-8.73,9.8-18.7,14.6-24.36Z"/><path class="cls-2_dream-1-61" d="M271.97,357.51c2.17,1.75,4.46,3.56,7.2,4.13,2.39.49,5.06,0,7.19,1.22.93.6,1.75,1.35,2.43,2.23,3.41,3.94,6.56,8.11,9.42,12.46-3.19,2.68-7.78,3.08-11.88,2.23-4.1-.85-7.83-2.74-11.71-4.3-13.86-5.48-29.24-6.16-43.22-11.46-5.3-2.13-10.45-4.6-15.44-7.37l-44.27-23.5c1.19-4.1,5.4-6.74,9.61-7.42s8.52.17,12.73.91c11.04,1.86,22.23,2.67,33.42,2.44,9.14-.18,14.68.65,20.16,7.85,6.19,8.07,16.44,14.24,24.34,20.57Z"/></g></svg>