<svg id="_0283_neutral_face" xmlns="http://www.w3.org/2000/svg" xmlns:xlink="http://www.w3.org/1999/xlink" viewBox="0 0 500 500" data-imageid="neutral-face-99" imageName="Neutral Face" class="illustrations_image" style="width: 166px;"><defs><style>.cls-1_neutral-face-99{fill:none;}.cls-1_neutral-face-99,.cls-2_neutral-face-99,.cls-3_neutral-face-99,.cls-4_neutral-face-99,.cls-5_neutral-face-99,.cls-6_neutral-face-99,.cls-7_neutral-face-99,.cls-8_neutral-face-99,.cls-9_neutral-face-99,.cls-10_neutral-face-99,.cls-11_neutral-face-99,.cls-12_neutral-face-99,.cls-13_neutral-face-99,.cls-14_neutral-face-99,.cls-15_neutral-face-99,.cls-16_neutral-face-99,.cls-17_neutral-face-99,.cls-18_neutral-face-99{stroke-width:0px;}.cls-2_neutral-face-99{fill:url(#linear-gradient);}.cls-3_neutral-face-99{fill:url(#linear-gradient-4-neutral-face-99);}.cls-4_neutral-face-99{fill:url(#linear-gradient-2-neutral-face-99);}.cls-5_neutral-face-99{fill:url(#linear-gradient-3-neutral-face-99);}.cls-6_neutral-face-99{fill:url(#linear-gradient-8-neutral-face-99);}.cls-7_neutral-face-99{fill:url(#linear-gradient-7-neutral-face-99);}.cls-8_neutral-face-99{fill:url(#linear-gradient-5-neutral-face-99);}.cls-9_neutral-face-99{fill:url(#linear-gradient-6-neutral-face-99);}.cls-10_neutral-face-99{isolation:isolate;opacity:.24;}.cls-10_neutral-face-99,.cls-18_neutral-face-99{fill:#68e1fd;}.cls-11_neutral-face-99{fill:#f2fbff;}.cls-12_neutral-face-99{fill:#292f67;}.cls-13_neutral-face-99{fill:#26265f;}.cls-14_neutral-face-99{fill:#231f20;}.cls-15_neutral-face-99{fill:#d2e8ec;}.cls-16_neutral-face-99{fill:#b58b81;}.cls-17_neutral-face-99{fill:#ffaa71;}</style><linearGradient id="linear-gradient-neutral-face-99" x1="718.17" y1="3783.93" x2="700.71" y2="3241.25" gradientTransform="translate(-471 4137.56) scale(1 -1)" gradientUnits="userSpaceOnUse"><stop offset="0" stop-color="#231f20" stop-opacity="0"/><stop offset="1" stop-color="#231f20"/></linearGradient><linearGradient id="linear-gradient-2-neutral-face-99" x1="792.15" y1="3728.72" x2="730.14" y2="3919.13" gradientTransform="translate(-518.15 4119.5) scale(1 -1)" xlink:href="#linear-gradient-neutral-face-99"/><linearGradient id="linear-gradient-3-neutral-face-99" x1="772.46" y1="3786.12" x2="692.1" y2="3778.55" gradientTransform="translate(-518.15 4119.5) scale(1 -1)" xlink:href="#linear-gradient-neutral-face-99"/><linearGradient id="linear-gradient-4-neutral-face-99" x1="777.27" y1="3903.96" x2="864.83" y2="3850.46" gradientTransform="translate(-518.15 4119.5) scale(1 -1)" xlink:href="#linear-gradient-neutral-face-99"/><linearGradient id="linear-gradient-5-neutral-face-99" x1="701.96" y1="3915.84" x2="616.15" y2="3913.66" xlink:href="#linear-gradient-neutral-face-99"/><linearGradient id="linear-gradient-6-neutral-face-99" x1="743.95" y1="3874.19" x2="706.5" y2="3812.39" gradientTransform="translate(-518.15 4119.5) scale(1 -1)" xlink:href="#linear-gradient-neutral-face-99"/><linearGradient id="linear-gradient-7-neutral-face-99" x1="343.49" y1="4242.28" x2="529.94" y2="4259.46" gradientTransform="translate(-720.98 4291.4) rotate(7.67) scale(1 -1)" gradientUnits="userSpaceOnUse"><stop offset="0" stop-color="#fff" stop-opacity="0"/><stop offset=".95" stop-color="#fff"/></linearGradient><linearGradient id="linear-gradient-8-neutral-face-99" x1="314.66" y1="4239.91" x2="476.85" y2="4254.85" xlink:href="#linear-gradient-7-neutral-face-99"/></defs><g id="background_neutral-face-99"><path class="cls-10_neutral-face-99 targetColor" d="M171.1,55.28c-21.46,8.85-36.21,28.87-47.13,49.36-10.93,20.49-19.38,42.54-33.73,60.78-9.65,12.24-21.72,22.38-32,34.15-30.42,34.74-43.85,83.69-35.43,129.04s38.5,86.28,79.34,107.81c46.45,24.48,102.46,23.57,153.77,12.43,28.81-6.26,57.52-15.59,86.99-14.42,9.86.39,19.96,1.91,29.45-.75,10.09-2.87,18.26-10.16,25.67-17.58,21.18-21.17,39.66-45.48,51.42-73.03,28.3-66.3,12.12-149.12-39.07-199.88-12.43-12.28-26.5-22.73-39.11-34.79-11.17-10.68-21.17-22.63-33.2-32.34-23.16-18.67-52.85-27.32-82.41-25.91-27.01,1.33-59.12-5.37-84.56,5.12Z" style="fill: rgb(70, 179, 70);"/><ellipse class="cls-2_neutral-face-99" cx="244.98" cy="421.93" rx="86.76" ry="13.39"/></g><g id="character_neutral-face-99"><path class="cls-17_neutral-face-99" d="M259.15,395.86l.33,7.41c-1.1,2.97-3.56,5.23-6.61,6.08-2.89.77-5.97.14-8.33-1.7l.53-12.43"/><path class="cls-17_neutral-face-99" d="M230.34,402.62l.33,7.42c-1.11,2.97-3.56,5.23-6.61,6.08-2.89.76-5.96.13-8.32-1.71l.53-12.43"/><path class="cls-14_neutral-face-99" d="M265.04,274.43l-4.93,123.13c-1.89,1.4-4.15,2.19-6.5,2.27-4.54.26-5.36.59-8.6-2.39l-14.34-129.14,34.36-.73v6.86Z"/><path class="cls-4_neutral-face-99" d="M265.04,274.43l-4.93,123.13c-1.89,1.4-4.15,2.19-6.5,2.27-4.54.26-5.36.59-8.6-2.39l-14.34-129.14,34.36-.73v6.86Z"/><path class="cls-14_neutral-face-99" d="M245.57,285.48l-14.14,119.77s-2.05,2.09-7.6,2.17c-6.33.09-6.9-.78-8.32-3.99l-2.82-137.37,32.5,5.54.37,13.87Z"/><path class="cls-5_neutral-face-99" d="M245.57,285.48l-14.14,119.77s-2.05,2.09-7.6,2.17c-6.33.09-6.9-.78-8.32-3.99l-2.82-137.37,32.5,5.54.37,13.87Z"/><path class="cls-11_neutral-face-99" d="M250.03,273.5c-4.44,1.5-9.01,2.57-13.66,3.2-6.15.63-12.6-2.34-17.46-2.59-6.44-.33-6.61-.54-6.61-4.73,0-2.12,53.53-7.18,53.53-7.18,0,0-.25,3.82-.24,7.44,0,2.69-1.15,2.53-6.02,2.81-4.87.28-5.74-1.19-9.53,1.05Z"/><path class="cls-18_neutral-face-99 targetColor" d="M228.9,178.94s-8.99,2.33-15.39,7c-3.96,2.87-1.21,83.44-1.21,83.44.39-.08,17.6,6.91,34.24,4.03,14.17-2.45,19.31-9.09,19.31-9.09,0,0,1.28-77.28-1.47-80.46-1.23-1.42-14.7-6.39-14.7-6.39,0,0-5.93,8.84-20.77,1.47Z" style="fill: rgb(70, 179, 70);"/><path class="cls-13_neutral-face-99" d="M257.24,143.61c-.14-2.35-.66-4.66-1.55-6.83h0s5.08-2.59,4.05,6.75c-1.02,9.34.11,10.15-3.68,15.29l-.83-1.99c1.05-4.88,2.42-7.26,2.01-13.22Z"/><path class="cls-17_neutral-face-99" d="M231.84,161.04l-2.94,17.89s6.59,9.64,14.9,8.21c8.32-1.43,6.25-5.32,6.25-5.32l-1.08-15.12s-7.51,1.34-17.13-5.66Z"/><path class="cls-16_neutral-face-99" d="M230.81,167.34l1.03-6.29c9.62,6.99,14.6,4.01,14.6,4.01l2.32,8.12c-1.3,1.37-3.06,2.21-4.94,2.37-4.61.33-9.27-3.27-13.01-8.22Z"/><path class="cls-11_neutral-face-99" d="M229.25,176.79l-8.71,4.1s13.76,14.56,17.93,14.21c0,0,3.95-7.34,7.65-8.5l-16.87-9.82Z"/><path class="cls-18_neutral-face-99 targetColor" d="M263.34,183.37s7.41.82,11.59,28.52c3.88,25.66,8,35.6.09,39.57-10.93,5.49-15.49,3.97-15.49,3.97,0,0-3.75-7.65-1.6-12.85,0,0,2.73-1.02,8.02-3.44l-.16-19.6s-12.55-40.12-2.45-36.18Z" style="fill: rgb(70, 179, 70);"/><path class="cls-11_neutral-face-99" d="M249.46,179.29c-.72,2.6-1.84,5.07-3.33,7.32.81.32,6.14,4.03,6.23,6.56,0,0,5.29-11.98,3.11-13.87-1.83-.94-3.71-1.78-5.64-2.5l-.37,2.49Z"/><path class="cls-18_neutral-face-99 targetColor" d="M217.09,183.83s-13.48,4.35-15.01,25.88c-1.39,19.56-4.9,33.85-2.05,39.66,3.72,7.57,29.7,8.84,29.7,8.84.63-3.77.47-7.64-.46-11.35l-14.25-5.68s2.27-54.01,2.06-57.35Z" style="fill: rgb(70, 179, 70);"/><path class="cls-3_neutral-face-99" d="M265.77,198.21l2.75,38.69c.28,1.82-.73,3.58-2.43,4.27,0,0,.34-18.66.12-19.56s-.94-20.65-.45-23.41Z"/><path class="cls-17_neutral-face-99" d="M224.31,148.02c.71,9.93,10.89,27.47,20.82,26.76s12.81-21.25,12.1-31.18c-.71-9.93-6.29-15.55-16.25-14.84-9.92.72-17.38,9.34-16.67,19.26Z"/><path class="cls-13_neutral-face-99" d="M232.64,129.35s2.99-5.26,12.33-4.24c9.34,1.01,11.47,7.65,13.94,6.59,2.47-1.06,6.94,2.87,3.89,7.3s-8.02,5.63-14.13,2.7c-6.11-2.93-13.7-3.24-15.29-1.44s2.06,20.07,2.06,20.07c0,0,.07.84-1.67.11s-.63-11.76-4.03-12.36c-3.4-.6-3.75,7.04-1.02,9.34,2.1,1.79,2.54,7.9,2.54,7.9,0,0-10.93-7.3-10.14-19.99.78-12.68,5.55-17.22,11.54-15.97Z"/><path class="cls-17_neutral-face-99" d="M256.89,245.28c-1.27-1.27-2.98-1.99-4.78-2.03-2.87.06-5.36,1.07-9.56,1.37s-1.39,4.18-1.19,6.82c.19,2.65-.42,5.93.48,6.69s15.92-1.13,17.47-2.92c.7-.83.21-8.43-2.42-9.93Z"/><path class="cls-11_neutral-face-99" d="M260.96,243.31s.56,10.91,1.67,11.67l-5.39,1.22c-2.16-3.53-2.65-7.82-1.36-11.75l5.08-1.15Z"/><circle class="cls-15_neutral-face-99" cx="258.54" cy="246.3" r="1.02"/><path class="cls-16_neutral-face-99" d="M247.68,256.63c-.23-1.91.66-3.72.96-6.95.3-3.23-1.83-4.05-4.88-4.4-.84-.1-1.5-.2-2.06-.29-2.87.7-.58,4.16-.42,6.58s-.38,5.81.45,6.58c.34.32,2.96.17,6.01-.22.03-.43.01-.87-.06-1.3Z"/><path class="cls-11_neutral-face-99" d="M260.96,243.31s.56,10.91,1.67,11.67l-5.39,1.22c-2.16-3.53-2.65-7.82-1.36-11.75l5.08-1.15Z"/><circle class="cls-15_neutral-face-99" cx="258.54" cy="246.3" r="1.02"/><polygon class="cls-8_neutral-face-99" points="217.06 202.03 212.93 239.85 217.77 242.1 217.06 202.03"/><path class="cls-9_neutral-face-99" d="M224.66,258.54l-12.35-2.33.67,8.53s.69-7.48,5.32-5.55c4.64,1.92,6.36-.64,6.36-.64Z"/><path class="cls-17_neutral-face-99" d="M249.59,164.53s-.28-.24-2.36-.1c-2.47.13-4.94-.05-7.37-.52-1.6-.41-2.36-.16-2.21,1.99s1.85,4.05,6.06,4.28c4.72.25,6.69-1.53,7.07-3.65.25-1.54-.69-2.05-1.19-2.01Z"/><path class="cls-17_neutral-face-99" d="M231.43,247.2c1.77-.38,3.51-.87,5.22-1.46,2.25-.84,2.94-.35,6.24,0s5.54,1.19,5.27,4.49-1.24,5.15-.96,7.08-.35,3.58-3.23,3.65-12.51-2.87-12.51-2.87"/><path class="cls-11_neutral-face-99" d="M228.27,246.3h5s2.16,7.22-.65,12.23l-5.56-.2s1.91-7.02,1.21-12.02Z"/><ellipse class="cls-15_neutral-face-99" cx="230.79" cy="248.67" rx="1.1" ry="1.17"/><polygon class="cls-11_neutral-face-99" points="263.21 206.07 254.85 207.7 254.45 205.12 262.8 203.49 263.21 206.07"/><path class="cls-12_neutral-face-99" d="M250.3,152.71h0c-.69-2.65.9-5.36,3.55-6.05,0,0,0,0,0,0,2.71-.43,5.25,1.41,5.68,4.12.38,2.35-.97,4.63-3.2,5.44h-.17c-2.58.58-5.16-.97-5.87-3.51ZM254.12,147.82c-2.01.52-3.22,2.58-2.71,4.59h0c.52,2.01,2.57,3.23,4.59,2.71,2.01-.52,3.23-2.57,2.71-4.59-.25-.97-.88-1.8-1.74-2.31-.82-.49-1.79-.64-2.71-.43l-.13.03Z"/><path class="cls-12_neutral-face-99" d="M240.12,156.34c-1.29-.75-2.23-1.99-2.6-3.43h0c-.79-3.01,1.01-6.09,4.01-6.88,3.01-.79,6.09,1.01,6.88,4.01.38,1.44.17,2.98-.59,4.26-.76,1.29-1.99,2.23-3.44,2.6h-.2c-1.38.33-2.83.13-4.06-.56ZM241.86,147.2c-2.37.61-3.8,3.04-3.18,5.41.3,1.14,1.03,2.11,2.04,2.71,2.11,1.24,4.83.53,6.07-1.58.6-1.01.77-2.22.48-3.36-.3-1.14-1.03-2.11-2.05-2.71-.97-.57-2.12-.75-3.21-.51l-.15.04Z"/><path class="cls-12_neutral-face-99" d="M250.17,151.57l1.15-.33c-.16-.46-.51-.82-.96-1.01-1.02-.28-2.12-.09-2.98.53l.56,1.04c1.17-.63,1.73-.55,1.96-.46.11.05.21.13.27.24Z"/><polygon class="cls-12_neutral-face-99" points="238.05 151.21 238 150.02 231.19 150.22 231.25 151.41 238.05 151.21"/><circle class="cls-18_neutral-face-99 targetColor" cx="244.16" cy="135.39" r="48.86" style="fill: rgb(70, 179, 70);"/><path class="cls-7_neutral-face-99" d="M292.61,141.92c-3.61,26.73-28.21,45.48-54.95,41.87-26.73-3.61-45.48-28.21-41.87-54.95,3.59-26.57,27.92-45.28,54.51-41.92h.39c26.74,3.59,45.51,28.18,41.92,54.92,0,.03,0,.05-.01.08Z"/><path class="cls-6_neutral-face-99" d="M292.61,141.92c-2.93,21.77-20.03,38.92-41.8,41.9l-.39-.06c-26.75-3.6-45.51-28.2-41.9-54.95,2.93-21.77,20.03-38.91,41.8-41.89h.39c26.74,3.59,45.51,28.18,41.92,54.92,0,.03,0,.05-.01.08Z"/><line class="cls-1_neutral-face-99" x1="221" y1="149.51" x2="270.33" y2="149.28"/><path class="cls-18_neutral-face-99 targetColor" d="M220.99,151.86c-.63,0-1.16-.76-1.16-1.69s.52-1.71,1.16-1.71l49.33-.34h0c.64,0,1.17.76,1.17,1.7s-.52,1.7-1.16,1.71l-49.33.33h0Z" style="fill: rgb(70, 179, 70);"/><circle class="cls-18_neutral-face-99 targetColor" cx="227.58" cy="125.99" r="4.81" style="fill: rgb(70, 179, 70);"/><circle class="cls-18_neutral-face-99 targetColor" cx="257.86" cy="125.99" r="4.81" style="fill: rgb(70, 179, 70);"/><path class="cls-14_neutral-face-99" d="M198.93,423.42c-.96,1.15-1.84,2.52-1.14,3.75.74.91,1.77,1.54,2.92,1.79,4.14,1.19,8.49,1.46,12.74.79,4.15-.65,8.22-1.73,12.14-3.23,1.11-.35,2.17-.85,3.14-1.48,1.91-1.36,2.38-3.41,2.6-5.33.31-2.63.31-5.28,0-7.91.02-.78-.47-1.49-1.2-1.75-.59-.1-1.2-.05-1.78.13-3.31.8-6.68,1.31-10.07,1.54-1.53.03-3.04.33-4.45.9-5.1,1.73-12.17,7.47-14.89,10.8Z"/><path class="cls-14_neutral-face-99" d="M244.56,419.6c0,.8.31,1.58.85,2.17.85.62,1.83,1.02,2.87,1.17,8.68,2.06,17.85,3.92,26.86,2.82,2.02-.25,4.14-.71,5.43-1.84,1.34-1.27,1.59-3.32.58-4.87-1.11-1.62-2.51-3.02-4.14-4.13-3.82-3-12.43-7.94-16.25-10.94-.35-.3-.75-.54-1.19-.7-.66-.13-1.34-.13-2.01,0-3.53.39-2.31,2.92-5.88,2.98-1.65,0-4.24-.48-5.74.27-3.7,1.83-1.69,10.3-1.4,13.08Z"/></g></svg>